<?xml version="1.0" encoding="UTF-8" standalone="no"?>
<svg
   xmlns:dc="http://purl.org/dc/elements/1.1/"
   xmlns:cc="http://creativecommons.org/ns#"
   xmlns:rdf="http://www.w3.org/1999/02/22-rdf-syntax-ns#"
   xmlns:svg="http://www.w3.org/2000/svg"
   xmlns="http://www.w3.org/2000/svg"
   viewBox="552 405 484 445"
   height="445"
   width="484"
   xml:space="preserve"
   id="svg2"
   version="1.1"><metadata
     id="metadata8"><rdf:RDF><cc:Work
         rdf:about=""><dc:format>image/svg+xml</dc:format><dc:type
           rdf:resource="http://purl.org/dc/dcmitype/StillImage" /></cc:Work></rdf:RDF></metadata><defs
     id="defs6"><clipPath
       id="clipPath18"
       clipPathUnits="userSpaceOnUse"><path
         id="path16"
         d="M 0,841.89 H 1190.551 V 0 H 0 Z" /></clipPath></defs><g
     transform="matrix(1.3333333,0,0,-1.3333333,0,1122.52)"
     id="g10"><g
       id="g12"><g
         clip-path="url(#clipPath18)"
         id="g14"><g
           transform="translate(438.8233,536.7398)"
           id="g20"><path
             id="path22"
             style="fill:#78787b;fill-opacity:1;fill-rule:evenodd;stroke:none"
             d="m 0,0 h 312.897 c 12.946,0 23.555,-10.562 23.555,-23.501 v -156.432 l -360,-0.067 V -23.501 C -23.548,-10.562 -12.926,0 0,0" /></g><g
           transform="translate(595.275,500.7374)"
           id="g24"><path
             id="path26"
             style="fill:#005a9b;fill-opacity:1;fill-rule:nonzero;stroke:none"
             d="m 0,0 c -79.932,0 -144.006,-23.959 -144.006,-53.998 0,-29.856 64.603,-54 144.006,-54 79.406,0 144.008,24.225 144.008,54 C 144.008,-24.223 79.406,0 0,0" /></g><g
           transform="translate(651.9976,435.3004)"
           id="g28"><path
             id="path30"
             style="fill:#ffffff;fill-opacity:1;fill-rule:nonzero;stroke:none"
             d="m 0,0 c 0.043,-0.246 0.363,-0.483 0.678,-0.597 0.109,-0.041 0.172,-0.121 0.047,-0.379 -0.898,-1.921 -1.722,-3.03 -2.846,-4.7 -1.033,-1.543 -2.198,-2.747 -3.608,-3.904 -2.127,-1.761 -5.082,-3.677 -7.524,-2.389 -1.085,0.564 -1.554,2.081 -1.532,3.311 0.056,3.456 1.589,7.004 4.428,10.491 3.461,4.261 7.287,6.471 9.797,5.263 C 2.038,5.856 1.209,2.849 0.047,0.487 -0.04,0.305 -0.046,0.149 0,0 m 27.879,26.929 c 0.187,0.329 -0.01,0.57 -0.426,0.57 -2.17,0 -5.016,-0.005 -7.277,-0.005 -0.539,0 -0.818,-0.065 -1.072,-0.565 C 18.271,25.329 8.1,10.088 6.206,7.128 5.888,6.677 5.498,6.739 5.453,7.253 c -0.191,1.758 -1.71,3.778 -4.101,4.745 -1.824,0.74 -3.606,0.874 -5.458,0.628 -3.345,-0.449 -6.326,-2.215 -8.946,-4.204 -3.949,-3.003 -7.355,-6.894 -11.754,-9.769 -2.401,-1.564 -5.688,-2.929 -7.888,-0.892 -1.992,1.845 -1.767,5.946 1.279,9.117 0.321,0.332 0.706,0.055 0.645,-0.244 -0.287,-1.435 0.067,-2.861 1.155,-3.861 1.329,-1.19 3.23,-1.326 4.858,-0.531 1.921,0.952 3.05,2.79 3.379,4.876 0.51,3.236 -1.981,6.091 -5.099,6.32 -2.532,0.177 -4.96,-0.704 -7.326,-2.657 -1.185,-0.983 -1.86,-1.711 -2.885,-3.17 -0.25,-0.358 -0.634,-0.395 -0.623,0.135 0.12,4.144 -1.595,6.475 -5.021,6.551 -2.658,0.062 -5.499,-1.379 -7.713,-3.145 -2.427,-1.949 -4.549,-4.532 -6.823,-6.959 -0.283,-0.298 -0.53,-0.285 -0.61,0.295 -0.068,2.745 -0.758,5.405 -2.029,7.292 -0.45,0.658 -1.394,0.983 -2.189,0.538 -0.367,-0.201 -1.646,-0.788 -2.575,-1.537 -0.462,-0.38 -0.641,-0.929 -0.438,-1.635 1.227,-4.1 0.957,-8.763 -0.707,-12.702 -1.526,-3.606 -4.496,-6.86 -7.985,-7.961 -2.299,-0.728 -4.69,-0.372 -6.169,1.666 -2.031,2.814 -1.211,7.705 1.816,11.768 2.672,3.576 6.537,5.849 10.392,7.312 0.454,0.174 0.547,0.465 0.42,0.851 -0.211,0.635 -0.544,1.497 -0.682,1.892 -0.353,0.94 -1.343,1.093 -2.551,0.962 -2.801,-0.327 -5.328,-1.287 -7.825,-2.622 -6.535,-3.5 -9.812,-10.275 -11.249,-13.899 -0.691,-1.74 -1.283,-2.827 -2.046,-3.79 -1.031,-1.295 -2.324,-2.474 -4.689,-4.551 -0.214,-0.19 -0.374,-0.588 -0.194,-0.957 0.241,-0.5 1.471,-2.236 1.819,-2.391 0.385,-0.19 0.832,0.075 1.01,0.204 1.656,1.122 3.636,2.899 4.605,4.105 0.34,0.413 0.689,0.239 0.869,-0.387 0.904,-3.227 3.272,-5.861 6.546,-6.962 5.994,-2.022 12.211,0.904 16.902,5.997 2.982,3.236 4.059,5.318 5.201,6.733 1.936,2.4 5.757,7.77 10.308,11.217 1.669,1.27 3.645,2.24 4.638,1.597 0.797,-0.516 1.054,-1.717 -0.225,-4.043 -4.64,-8.473 -11.467,-18.428 -12.719,-20.842 -0.228,-0.419 -0.029,-0.748 0.41,-0.748 2.427,0.011 4.835,0.006 7.039,0.006 0.367,0.017 0.531,0.184 0.714,0.443 3.561,5.574 6.913,10.88 10.504,16.364 0.202,0.323 0.387,0.073 0.395,-0.068 0.074,-1.273 0.387,-3.014 1.141,-4.156 1.358,-2.114 3.283,-3.022 5.417,-3.036 1.698,-0.019 2.556,0.239 4.387,0.922 1.49,0.553 2.687,1.279 3.605,1.935 0.536,0.372 0.63,-0.251 0.616,-0.347 -0.823,-4.425 0.193,-9.668 4.592,-11.842 5.262,-2.594 11.045,1.052 14.372,4.345 0.325,0.318 0.675,0.284 0.708,-0.399 0.07,-1.257 0.638,-2.749 1.678,-3.793 2.789,-2.798 8.415,-1.69 14.06,2.68 3.625,2.798 7.418,6.751 10.845,10.938 0.127,0.161 0.221,0.423 -0.024,0.685 -0.521,0.546 -1.277,1.171 -1.794,1.653 -0.236,0.2 -0.582,0.142 -0.781,-0.008 -3.512,-3.34 -6.673,-7.148 -11.242,-10.299 -1.541,-1.075 -3.996,-1.942 -5.1,-0.45 -0.429,0.579 -0.38,1.382 0.043,2.434 1.332,3.322 22.423,35.432 23.518,37.327" /></g><g
           transform="translate(580.647,458.355)"
           id="g32"><path
             id="path34"
             style="fill:#ffffff;fill-opacity:1;fill-rule:nonzero;stroke:none"
             d="M 0,0 C 0.088,-0.478 0.275,-0.569 0.491,-0.529 1.565,-0.314 2.742,0.57 3.437,1.594 4.072,2.522 4.369,3.863 3.74,4.4 3.176,4.883 2.263,4.746 1.585,4.147 0.236,2.955 -0.175,1.263 0,0 m -53.756,-41.334 c -7.864,-0.057 -14.792,4.805 -15.586,13.218 -0.442,4.662 0.876,8.817 3.513,12.24 2.341,3.05 6.302,5.584 9.655,6.203 1.091,0.2 2.558,0.072 3.163,-0.649 0.951,-1.107 0.677,-2.322 -0.272,-2.807 -2.558,-1.307 -5.637,-3.542 -7.159,-6.595 -1.237,-2.492 -1.486,-5.496 0.401,-8.356 3.159,-4.769 11.961,-4.899 20.146,2.705 2.026,1.86 3.841,3.648 5.685,5.767 3.605,4.122 4.804,5.624 9.596,12.271 0.057,0.076 0.073,0.178 0.048,0.227 -0.04,0.085 -0.107,0.108 -0.246,0.117 -3.199,-0.088 -5.988,-1.042 -8.699,-3.069 -0.78,-0.568 -1.904,-0.488 -2.396,0.261 -0.546,0.847 -0.155,1.951 0.746,2.573 4.361,3.034 9.125,3.583 13.99,4.405 -0.004,0 0.338,-0.017 0.617,0.353 1.996,2.563 3.505,4.875 5.633,7.467 2.144,2.63 4.917,5.045 7.034,6.858 2.955,2.542 4.85,3.396 6.776,4.445 0.507,0.264 -0.066,0.582 -0.219,0.582 -10.753,2.021 -21.931,4.636 -32.61,0.682 -7.396,-2.76 -10.637,-8.626 -9.077,-12.544 1.108,-2.78 4.765,-3.232 8.187,-1.557 2.844,1.393 5.473,3.638 7.339,6.528 1.044,1.605 3.242,0.447 2.055,-2.34 -3.125,-7.345 -9.096,-13.172 -16.368,-13.417 -6.188,-0.201 -10.182,4.352 -10.169,9.969 0.023,11.079 12.36,18.377 25.321,19.468 15.61,1.29 30.395,-2.868 45.894,-4.748 11.875,-1.438 23.26,-1.468 35.196,1.274 1.411,0.306 2.401,-0.594 2.309,-2.019 C 56.63,16.118 55.035,14.134 51.104,11.99 46.633,9.538 41.956,8.794 37.071,8.754 25.259,8.656 14.256,13.26 2.87,15.734 2.887,15.236 3.014,14.641 2.597,14.327 -3.71,9.675 -9.411,4.951 -13.229,-1.684 c -0.129,-0.153 -0.06,-0.299 0.163,-0.284 3.315,0.176 6.296,0.262 9.392,0.509 0.54,0.045 0.561,0.18 0.512,0.575 -0.272,2.287 0.395,4.895 2.407,6.689 C 1.304,7.651 3.883,7.861 5.591,6.531 7.535,5.017 7.363,2.294 6.3,0.252 5.218,-1.82 3.431,-2.928 1.716,-3.466 c 0,0 -0.359,-0.079 -0.307,-0.405 0.068,-0.524 2.404,-1.818 2.605,-2.163 0.192,-0.328 0.093,-0.837 -0.263,-1.227 -0.249,-0.283 -0.634,-0.55 -1.13,-0.54 -0.401,0.008 -0.645,0.147 -1.157,0.424 -1.049,0.568 -2.359,1.502 -3.232,2.603 -0.298,0.372 -0.449,0.379 -1.193,0.339 -3.35,-0.193 -8.572,-0.698 -12.11,-1.14 -0.857,-0.107 -0.983,-0.267 -1.16,-0.564 -5.641,-9.302 -11.664,-19.334 -18.276,-26.049 -7.094,-7.202 -12.991,-9.097 -19.249,-9.146" /></g><g
           transform="translate(595.272,491.9073)"
           id="g36"><path
             id="path38"
             style="fill:#ffffff;fill-opacity:1;fill-rule:nonzero;stroke:none"
             d="m 0,0 c -73.535,0 -133.141,-20.32 -133.141,-45.185 0,-24.867 59.606,-45.19 133.141,-45.19 73.534,0 133.136,20.323 133.136,45.19 C 133.136,-20.32 73.534,0 0,0 m 0,-94.469 c -76.212,0 -137.993,22.064 -137.993,49.284 0,27.223 61.781,49.284 137.993,49.284 76.205,0 137.982,-22.061 137.982,-49.284 0,-27.22 -61.777,-49.284 -137.982,-49.284" /></g><g
           transform="translate(751.7276,206.7095)"
           id="g40"><path
             id="path42"
             style="fill:#f26323;fill-opacity:1;fill-rule:evenodd;stroke:none"
             d="m 0,0 h -312.897 c -12.946,0 -23.555,10.562 -23.555,23.501 v 120.462 l 360,0.067 V 23.501 C 23.548,10.562 12.927,0 0,0" /></g><g
           transform="translate(495.3501,293.1983)"
           id="g44"><path
             id="path46"
             style="fill:#ffffff;fill-opacity:1;fill-rule:nonzero;stroke:none"
             d="M 0,0 H -12.577 V 9.038 H 22.626 V 0 H 9.986 V -37.795 H 0 Z" /></g><g
           transform="translate(539.9717,279.7359)"
           id="g48"><path
             id="path50"
             style="fill:#ffffff;fill-opacity:1;fill-rule:nonzero;stroke:none"
             d="m 0,0 c 4.298,0 6.004,1.896 6.004,6.889 0,5.056 -1.706,6.889 -6.004,6.889 H -7.9 V 0 Z M -1.706,-8.659 H -7.9 v -15.674 h -9.733 V 22.5 H 0.253 c 11.25,0 15.421,-5.435 15.421,-14.916 0,-6.889 -2.212,-12.387 -7.837,-14.852 l 7.521,-17.065 H 4.993 Z" /></g><g
           transform="translate(560.8301,271.836)"
           id="g52"><path
             id="path54"
             style="fill:#ffffff;fill-opacity:1;fill-rule:nonzero;stroke:none"
             d="M 0,0 V 30.4 H 9.923 V 0.948 c 0,-6.384 1.516,-9.164 7.963,-9.164 6.321,0 8.027,2.591 8.027,9.164 V 30.4 H 35.52 V 0 c 0,-11.124 -4.235,-17.128 -17.76,-17.128 C 4.424,-17.128 0,-11.124 0,0" /></g><g
           transform="translate(601.0928,278.7881)"
           id="g56"><path
             id="path58"
             style="fill:#ffffff;fill-opacity:1;fill-rule:nonzero;stroke:none"
             d="m 0,0 c 0,14.22 3.603,24.017 19.529,24.017 4.93,0 9.354,-1.201 12.704,-3.413 l -5.309,-8.216 c -1.896,1.201 -4.487,1.959 -7.711,1.959 -6.509,0 -9.164,-3.097 -9.164,-14.6 0,-11.312 2.528,-14.789 9.227,-14.789 3.35,0 5.625,0.695 8.28,2.402 l 4.866,-7.648 C 28.693,-22.626 25.028,-23.953 18.771,-23.953 4.171,-23.953 0,-14.663 0,0" /></g><g
           transform="translate(638.6993,302.2359)"
           id="g60"><path
             id="path62"
             style="fill:#ffffff;fill-opacity:1;fill-rule:nonzero;stroke:none"
             d="M 0,0 H 9.796 V -19.276 L 24.08,0 H 35.457 L 21.362,-18.202 35.709,-46.833 H 24.775 l -10.049,20.288 -4.93,-6.762 V -46.833 H 0 Z" /></g><g
           transform="translate(674.3472,259.0689)"
           id="g64"><path
             id="path66"
             style="fill:#ffffff;fill-opacity:1;fill-rule:nonzero;stroke:none"
             d="m 0,0 4.993,7.584 c 2.591,-1.643 6.952,-3.349 12.45,-3.349 5.373,0 7.142,1.706 7.142,4.803 0,4.108 -2.148,4.741 -9.796,7.142 -8.595,2.654 -12.704,6.131 -12.704,13.778 0,9.164 5.815,13.778 16.18,13.778 6.51,0 10.618,-1.138 14.347,-2.907 l -4.298,-8.47 c -2.212,1.075 -5.372,2.086 -9.796,2.086 -4.74,0 -6.763,-1.2 -6.763,-4.171 0,-3.223 1.833,-3.982 7.458,-5.815 C 30.4,20.857 34.192,18.392 34.192,9.228 34.192,0.948 29.136,-4.234 17.696,-4.234 9.922,-4.234 4.234,-2.781 0,0" /></g></g></g></g></svg>